<svg xmlns="http://www.w3.org/2000/svg" viewBox="0 0 717 470"><path fill="#FFF" d="M.8 421.3c0-139 0-278-.1-417C.7 1.4 1.4.7 4.3.7c138.5.1 277 .1 415.4.1-.4 2.2-2.3 1.7-3.7 1.8-15.5 1.6-30.9 4-46.1 7.9-28.9 7.5-56.2 18.8-82.3 33.1-5.3 2.9-10.4 6-15.5 9s-10.1 6.2-15 9.6c-4.2 3.1-8.6 6-12.7 9.2-3.7 2.5-7.2 5.3-10.6 8.1-3.6 2.6-6.8 5.6-10.3 8.4-4.5 3.8-9 7.6-13.2 11.7-7.3 5.7-13.1 12.9-20.1 18.9-3.6 2.3-5.6 6.2-8.7 9.1-3.4 3.3-6.8 6.8-10.2 10.2-3.9 3.6-6.9 8.1-10.8 11.6-1.9 2.5-4 4.8-6.3 7.1-2.1 3-5 5.3-7.1 8.4-3.2 3.5-6.4 7.1-9.3 10.9-3.8 4.3-7.5 8.6-10.9 13.2-3 3.3-5.6 7-8.4 10.4-2.9 3.6-5.6 7.4-8.6 10.9-2.7 3.5-5.4 7-7.9 10.7-1.7 2-3.2 4.1-4.7 6.3-1.5 1.7-2.8 3.6-4 5.5-2.7 3.3-5.1 6.9-7.6 10.3-2.3 3.4-4.7 6.8-7 10.1-3.1 4.6-6.2 9.3-9.3 14-2.7 3.9-5.2 7.8-7.6 11.9-2.9 4-5.1 8.3-7.8 12.5-2.1 3.2-3.8 6.5-5.7 9.8-1.8 2.5-3 5.3-4.6 7.9-1.2 2.4-2.8 4.6-3.9 7.1-2 3.9-4.1 7.8-6.2 11.7-2.1 4.1-4.3 8.1-5.9 12.5-.9 1.8-1.8 3.5-2.6 5.3-.3.7-.6 1.3-.9 2-1.3 3.1-2.6 6.1-3.9 9.3-2.6 5.9-4.9 11.9-6.8 18-2.8 7.7-5.1 15.5-6.8 23.4-1.8 7-2.8 14.2-4 21.3-.5.6-.7 1.5-1.9 1.4z"/><path fill="#E93E8F" d="M271.4 52.1c28.2-17.6 58.2-31.1 90.2-40.3C380 6.5 398.7 3 417.7 1.6c.7-.1 1.6.1 2-.8h4.7c1.6.8 3.3.2 4.9.4 2.5-.2 5.1.5 7.6-.4h5.5c1.3.8 2.7.2 4.1.4h3.6c1.6-.2 3.2.4 4.8-.4h.8c8.6 1.1 17.2 1.3 25.8 2.9 44.4 8.3 83.3 27.8 117.7 56.8 27.4 23.1 50.1 50.1 69.1 80.4.9 1.4 2.7 2.8.8 4.8-2.4.8-4.6-.1-6.9-.7-30.8-7.2-61.6-14.2-92.3-21.3l-85.5-19.8c-21.4-5-42.8-9.9-64.2-14.8-26-6-51.9-12-77.9-18-19.9-4.6-39.8-9.2-59.7-13.7-3-.7-6.1-1.3-9.1-2.3-1.3-.5-3-.9-2.1-3z"/><path fill="#FFF" d="M717.8 320.7c0 90.7 0 181.4.1 272.1 0 2.9-.7 3.4-3.4 3.4-115.9-.1-231.8-.1-347.7-.1-.2-.5-.1-.9.3-1.2 3.3-1.3 6.9-1 10.3-1.2 10.7-.6 21.3-1.6 31.9-2.6 17.8-1.9 35.5-4.5 53-8.2 11.3-2.4 22.5-5.2 33.6-8.5 13-3.9 25.7-8.6 38.2-14 9.4-3.9 18.3-8.5 27.1-13.4 8.2-4 15.7-9.2 23.4-14 9.2-6.2 18.3-12.7 26.8-19.9 5.9-4.7 11.6-9.6 17-14.8 2.8-2.8 5.8-5.4 8.2-8.5.4-.6.8-1.2 1.3-1.7 1.8-1.7 3.4-3.6 5.4-5.1 3.8-3.9 7.3-8 10.6-12.2 2.9-3.1 5.3-6.6 7.9-10 1.8-2.7 3.2-5.6 5.5-7.8 1.9-2.1 3.4-4.5 4.7-7 2.6-3 4.3-6.6 6.3-10.1 2.7-3.6 4.7-7.8 7-11.7 2.2-4.1 4.2-8.3 6.2-12.4 2.5-4.9 4.6-9.9 6.8-15 1.8-3.8 3.1-7.8 4.5-11.7 1.2-3.5 2.4-6.9 3.4-10.5.6-2.2 1.3-4.5 2-6.7.5-2.3 1.2-4.6 1.7-7 1-3.8 1.8-7.6 2.5-11.5.7-4.4 1.7-8.8 2.1-13.2.4-3.3 1-6.5.8-9.8.3-2.2-.5-4.9 2.5-5.7zM669.6 145.1c-8.7-15-18.9-28.9-30-42.2-25.2-30.4-54.4-56-89.6-74.4-28.7-15.1-59.3-24-91.6-26.9-.9-.1-2.1.4-2.8-.8 86.3 0 172.7 0 259-.1 2.7 0 3.2.5 3.2 3.2-.1 93.4-.1 186.7-.1 280.1-1.9-.2-1.6-1.7-1.8-2.9-.2-1.4 0-2.8-.5-4.2-.4-4.4-.7-8.8-1.5-13.1-1.4-4.6-.9-9.4-2.3-14-1.2-3.8-1.2-7.9-2.4-11.7-1.8-7.9-4-15.7-6.9-23.3-2.1-5.9-3.7-12-6.4-17.7-1.6-4.1-3.1-8.2-5.2-12-2-4.2-4-8.4-6.3-12.4-2.5-4.3-4.2-9-7.1-13-2.9-4.7-6.5-9-7.7-14.6z"/><path fill="#F28C5E" d="M409.6 592c-14.2 1.8-28.6 2.6-42.9 3.4-1.3.5-2.7.2-4.1.3h-15.3c-3.7.2-7.4-.5-11.1.4h-7c-3.6-.9-7.3-.2-10.9-.4h-16.9c-24 0-47.9-2.2-71.7-5.3-30-4-59.7-9.8-88.8-18.3-30.1-8.7-58.9-20.4-85-38-11.3-7.6-21.9-16.3-30.5-27.1-1.1-1.4-2.5-2.7-2.3-4.8 1.5-2.4 3.7-1.4 5.6-1 16.2 3.6 32.4 7.4 48.6 11.2 40.6 9.4 81.3 18.8 121.9 28.2 35.5 8.2 70.9 16.4 106.4 24.6 32.2 7.4 64.3 14.9 96.5 22.2 2.3.5 4.6.9 6.7 1.9 1 .5 2.7 1.2.8 2.7z"/><path fill="#F08264" d="M561.7 547.6c-8.6 5.4-17.8 9.8-27.2 13.4-5.5.8-10.5-1.5-15.6-2.7-63.7-14.7-127.4-29.5-191.1-44.2-68.6-15.8-137.3-31.7-205.9-47.5C82 457.4 42 448 1.9 439.1c-.4-.1-.8-.3-1.1-.6v-17.2c.8-.2.7-1 .9-1.6.9-3.3 1.7-3.8 5.7-2.9 8.5 1.9 17 4 25.4 5.9 42.9 9.9 85.9 19.8 128.8 29.7 35.3 8.2 70.7 16.3 106 24.5 43.4 10 86.9 20.1 130.3 30.1 35.1 8.1 70.2 16.2 105.2 24.3 18.2 4.2 36.5 8.3 54.7 12.7 1.9.5 4.7.2 3.9 3.6z"/><path fill="#F08562" d="M1.6 438.5c2.9-1.1 5.5.5 8.1 1.1 26.1 5.9 52.1 12.1 78.1 18.2 28.1 6.5 56.1 13 84.2 19.5 30.5 7 60.9 14.1 91.4 21.1 27.1 6.2 54.1 12.5 81.2 18.7 26.9 6.2 53.9 12.4 80.8 18.6 31.6 7.3 63.2 14.6 94.8 22 4.8 1.1 9.6 2.2 14.3 3.3-12.3 5.8-25.1 10.5-38.3 14.1-21-5.9-42.4-10.2-63.7-15.2-32.5-7.6-65.1-15.1-97.6-22.5-40.1-9.2-80.2-18.6-120.4-27.8-34.8-8-69.6-16.1-104.4-24.1-35.4-8.2-70.9-16.4-106.3-24.5-2.2-1.4-1.9-3.8-2.2-5.9-.3-2.4-.2-4.8-.8-7.2v-.8c.8-1.6.2-3.2.4-4.9.1-1.3-.4-2.6.4-3.7z"/><path fill="#FFF" d="M.8 447.8c2.1 3.9 1.1 8.6 3.1 12.5 2.6 4.3 2.9 9.4 5 13.8.8 1.6 1.3 3.4 2 5.1 2.2 5.7 5.1 11.1 8.5 16.2 1.5 2.2 3.4 4.3 4 7.1 8.5 12 19.6 21.4 31.6 29.7 24 16.7 50.6 27.8 78.4 36.5 34.1 10.7 69.1 17.3 104.6 21.7 21 2.6 42.1 4.1 63.2 5 .3.1.4.3.3.4-.1.2-.2.2-.3.2-99 0-198 0-297 .1-2.6 0-3.5-.3-3.5-3.3.1-48.3.1-96.6.1-145z"/><path fill="#EA5581" d="M717.8 320.7c-1.4 1.6-1.6 3.5-1.5 5.5-2 .8-3.9.1-5.7-.3-22.2-5-44.3-10.2-66.5-15.3-42.8-9.9-85.6-19.7-128.4-29.6-32.5-7.5-65.1-15-97.6-22.6-39.5-9.2-79-18.2-118.6-27.4-35.2-8.1-70.4-16.2-105.6-24.4-18.7-4.3-37.5-8.7-56.2-13-2.8-.6-5.6-1.2-8.3-2.2-1.4-.5-3.2-.8-3-2.9 3.2-4.7 6.9-9 10.8-13.1 2.6-.7 4.9.5 7.2 1 59.3 13.7 118.6 27.4 177.8 41.1 69 15.9 138.1 32 207.1 47.9 60.6 13.9 121.1 27.9 181.6 41.9 2.1.5 4.4.7 6.2 2.2.9 1.8-.3 3.9.7 5.7v5.5z"/><path fill="#EA5182" d="M717 309.7c-14.2-3.3-28.4-6.7-42.6-9.9-32.2-7.4-64.4-14.7-96.7-22.1-32.1-7.4-64.1-15-96.2-22.4-24.5-5.7-49.1-11.3-73.6-17-34-7.8-67.9-15.7-101.9-23.6-23.4-5.4-46.8-10.7-70.2-16.1-31.5-7.2-62.9-14.4-94.4-21.6-1.5-.3-2.9-1-4.4-1.6 2.7-4 6-7.4 9.3-10.9 2.3-1.4 4.6-.4 6.8.1 18.1 4.2 36.2 8.3 54.3 12.5 40.4 9.3 80.8 18.7 121.1 28 35.3 8.1 70.6 16.3 106 24.5 40.1 9.3 80.3 18.5 120.4 27.8 35.4 8.2 70.9 16.3 106.3 24.6 18.5 4.3 37 8.3 55.4 12.9.4.2.7.5 1.1.8v8.6c-.8 1.4-.2 3-.4 4.4.1.4-.1.7-.3 1z"/><path fill="#EA4F84" d="M716.3 276.8c1.5 2.2-.3 5.1 1.5 7.2v.8c-.8.7.1 2.2-1.2 2.8-3.2.7-6.2-.7-9.2-1.4-50.1-11.6-100.2-23.2-150.4-34.8l-177-40.8c-43.6-10-87.1-20.2-130.7-30.3-30.6-7.1-61.3-14.1-91.9-21.3-1.5-.3-4.4.4-3.7-3 2.1-2.4 4.1-4.7 6.2-7.1 16.6 4.8 33.6 8.1 50.4 12 29.9 7 59.7 13.9 89.6 20.8 42.8 9.8 85.6 19.7 128.4 29.6 36.2 8.4 72.4 16.7 108.6 25.1 42.5 9.9 85.1 19.7 127.6 29.5 15.1 3.5 30.1 7 45.2 10.5 2.3.5 4.4.9 6.6.4z"/><path fill="#F49C70" d="M318.3 595.3c3.7.3 7.4-.9 11 .7h-10.9c-.2-.2-.3-.3-.3-.5 0-.1.1-.2.2-.2z"/><path fill="#F4996E" d="M336.3 596.1c3.6-1.6 7.3-.4 11-.7.2.2.3.3.2.5-.1.2-.2.2-.3.2h-10.9z"/><path fill="#F7B08C" d="M347.2 596.1v-.7h9.4c.2.2.3.3.2.5l-.2.2h-9.4z"/><path fill="#F8BA98" d="M318.3 595.3v.7h-8.6c-.2-.1-.3-.3-.3-.5.1-.2.1-.2.2-.2h8.7z"/><path fill="#EB599B" d="M436.9.8c-2.5 1.6-5.2.5-7.8.8-.2-.2-.3-.3-.2-.5.1-.2.2-.2.3-.2 2.5-.1 5.1-.1 7.7-.1z"/><path fill="#F18CA5" d="M717 309.7v-.8c.2-.4.5-.4.8 0v6.2c-1.6-1.5-.5-3.6-.8-5.4z"/><path fill="#FBD1B9" d="M356.5 596.1c0-.2 0-.5.1-.7h6.2c.2.2.3.3.2.5l-.2.2h-6.3z"/><path fill="#EF7F9F" d="M717.8 295.7h-.7c-1.3-1.6-1.3-3.4-.4-5.2.3-.4.7-.5 1.2-.3-.1 1.8-.1 3.7-.1 5.5z"/><path fill="#F4ACC0" d="M717.8 290.2c-.2 0-.5 0-.7-.1-1-1-.9-2-.2-3.1.2-.8-.2-1.9.9-2.3v5.5z"/><path fill="#F9C7B2" d="M1.5 442.4c-.3 1.5.8 3.3-.8 4.7v-4.7c.3-.4.6-.4.8 0z"/><path fill="#EA5581" d="M717.8 309h-.8c.2-1.6-.6-3.3.8-4.7v4.7z"/><path fill="#FBD4BD" d="M309.7 595.4v.7H305c-.2-.1-.3-.3-.3-.4.1-.2.1-.2.2-.2 1.7-.1 3.2-.1 4.8-.1z"/><path fill="#F6BED8" d="M454.8.8c-1.3 1.6-3.1.5-4.6.7-.3-.1-.4-.3-.3-.4.1-.2.2-.3.3-.3h4.6z"/><path fill="#F087B5" d="M429.1.8v.8c-1.5-.3-3.3.7-4.7-.8h4.7z"/><path fill="#F49F81" d="M1.5 442.4H.7v-3.9h.8c.1 1.3 0 2.6 0 3.9z"/><path fill="#FDEADF" d="M305 595.4v.7h-3.9v-.7h3.9z"/><path fill="#F08FBA" d="M450.2.8c0 .2 0 .4.1.7-1.3 0-2.6 0-3.9.1-.4-.2-.5-.4-.4-.6.1-.2.2-.3.3-.3 1.3.1 2.6.1 3.9.1z"/><path fill="#EC68A3" d="M446.3.8v.7c-1.3-.1-2.8.6-3.9-.7h3.9z"/><path fill="#FEEDE4" d="M362.8 596.1v-.7h3.9v.7h-3.9z"/><path fill="#EF7C67" d="M611.8 513.7c-8.4 7.3-17.4 13.8-26.7 19.8-23.7-5.5-47.3-10.9-71-16.4-40-9.3-80-18.5-120-27.7-31.5-7.3-63-14.6-94.6-21.8-40.6-9.4-81.3-18.8-121.9-28.2-38.9-9-77.7-17.9-116.6-26.9-16.7-3.9-33.4-7.7-50.1-11.6-2-.5-4.2-.6-5.3-2.8 1.7-8 3.8-15.8 6.9-23.4 1.4-1.2 2.9-.7 4.5-.4 30.8 7.1 61.5 14.2 92.3 21.3 42.9 9.9 85.9 19.8 128.8 29.7 35.8 8.3 71.7 16.6 107.5 24.9 39.6 9.1 79.3 18.3 118.9 27.4 33.1 7.6 66.1 15.2 99.1 23 14.7 3.4 29.4 6.7 44.1 10.2 1.7.2 4.1.1 4.1 2.9z"/><path fill="#EF786A" d="M611.8 513.7c-3.5-3.2-8.2-2.8-12.3-3.9-17.2-4.3-34.4-8.1-51.7-12-36.1-8.3-72.2-16.6-108.3-25-32.2-7.4-64.4-15-96.6-22.4-27-6.3-54.1-12.5-81.2-18.7-28.1-6.5-56.1-13-84.2-19.5-30.4-7-60.9-14.1-91.4-21.1-23.7-5.5-47.3-10.9-71-16.4-.9-.2-1.8-.2-2.7-.2 1.7-6.2 4.1-12.2 6.8-18 1.7-1.2 3.5-.8 5.2-.4 38.5 9 77 17.8 115.5 26.7 46.6 10.7 93.2 21.6 139.8 32.3 42.3 9.7 84.6 19.6 126.9 29.3 50 11.5 100 23.2 150.1 34.7 22.7 5.2 45.4 10.4 68 15.8 1.9.4 4.9.2 4 3.8-5.1 5.5-10.8 10.4-16.9 15z"/><path fill="#E94889" d="M703.2 214.5c2.9 7.7 5.2 15.5 6.7 23.5-2.9 2.1-5.9.6-8.6-.1-13.4-3.2-26.8-6.1-40.2-9.3-17.8-4.3-35.6-8.5-53.5-12.6-40.5-9.3-81-18.8-121.6-27.9-18.4-4.1-36.7-8.5-55-12.8-15.6-3.6-31.1-7.2-46.7-10.7-17.7-4-35.4-8.4-53.1-12.5-42.8-9.9-85.6-19.8-128.4-29.6-3.3-.8-6.6-1.6-9.9-2.3-1.3-.3-2.9-.4-3.2-2.2 6.5-6.6 13-13.1 20.2-19 13.3 4.1 27 6.6 40.5 9.8 29.2 6.9 58.5 13.5 87.8 20.3 39.9 9.3 79.8 18.4 119.7 27.7 31.8 7.3 63.6 14.7 95.4 22 40.4 9.3 80.8 18.7 121.2 28 7.9 1.8 15.7 3.6 23.6 5.4 1.7.4 3.5 1 5.1 2.3z"/><path fill="#F07F65" d="M5.6 397.9c9.9 3.5 20.3 5.1 30.4 7.6 16 4 32.2 7.4 48.3 11.1 32.7 7.5 65.4 15 98.2 22.6 29.8 6.9 59.6 13.9 89.4 20.8 27 6.3 54.1 12.5 81.2 18.7 27.1 6.2 54.1 12.5 81.2 18.7 28.1 6.5 56.1 13 84.2 19.5 21 4.8 42.1 9.6 63.1 14.3 1.4.3 2.7.8 3.6 2.1-7.5 5.1-15.1 10.2-23.4 14.1-.1-1.4-.9-1.9-2.3-2.2-36.9-8.5-73.7-17-110.6-25.5-26.9-6.2-53.9-12.4-80.8-18.6-31.6-7.3-63.2-14.7-94.8-22-26.8-6.2-53.6-12.3-80.4-18.5L90.6 436.9c-24.3-5.6-48.6-11.1-72.9-16.7-3.8-.9-7.5-1.8-11.3-2.8-2.1-.5-3.8-.1-4.6 2.1.6-7.2 1.7-14.5 3.8-21.6z"/><path fill="#EC6477" d="M698.9 397.1c-1.9 5.2-4 10.2-6.8 14.9-4.5.2-8.7-1.5-12.9-2.5-39.9-9.2-79.8-18.5-119.6-27.7-42.3-9.7-84.6-19.5-126.9-29.3-36.3-8.4-72.7-16.8-109-25.2-42.3-9.8-84.6-19.5-126.9-29.3-31.8-7.3-63.6-14.7-95.3-22-9-2.1-18-4.2-27-6.2-2.2-.5-4.8-.6-5.9-3.1 3-4.8 6-9.5 9.5-13.9 14.3 4 28.8 6.9 43.2 10.3 30.1 7.1 60.3 14 90.4 20.9 39.1 9 78.3 18.1 117.4 27.1 31.8 7.3 63.6 14.6 95.4 22 40.3 9.4 80.5 18.6 120.8 27.9 32 7.4 64.1 14.8 96.1 22.2 18 4.2 36 8.3 53.9 12.5 1.3.4 2.7.3 3.6 1.4z"/><path fill="#ED6974" d="M685.8 424.4c-1.8 4.2-4.2 8.1-6.7 11.8-3.6.5-6.9-1-10.3-1.8-43.3-10-86.6-20.1-129.9-30l-147-33.9c-39.9-9.2-79.8-18.5-119.6-27.7l-136.8-31.5c-25.6-5.9-51.2-11.7-76.7-17.8-2-.5-4.2-.5-5.5-2.5 2.4-4.3 4.9-8.5 7.8-12.5 2-1.3 4.1-.4 6 .1 22.1 5.2 44.3 10.3 66.5 15.4 39.5 9.1 79 18.2 118.5 27.4 34.8 8 69.7 16.1 104.5 24.1 44.1 10.2 88.1 20.4 132.2 30.5 38.8 8.9 77.5 17.9 116.3 26.9 25.6 5.9 51.2 11.7 76.7 17.8 1.7.5 4.8.1 4 3.7z"/><path fill="#EE736D" d="M654.5 471c-3.2 4.6-6.7 8.8-10.9 12.5-57.8-13.7-115.7-26.9-173.6-40.3-69.1-16-138.3-31.9-207.4-47.9-50.3-11.6-100.5-23.2-150.8-34.9-27-6.3-54-12.4-80.9-18.7-1.5-.3-3.1-.4-4.3-1.6 1.6-4.4 3.8-8.5 6.1-12.5 1.5-2.1 3.5-1.2 5.4-.8 15.9 3.5 31.7 7.2 47.5 10.9C129.3 348 173.2 358 217 368.2c35.5 8.2 70.9 16.4 106.4 24.6 39.9 9.2 79.8 18.5 119.7 27.7l105.3 24.3c32.6 7.5 65.1 15 97.7 22.6 2.9.6 6.6.1 8.4 3.6z"/><path fill="#EC6178" d="M698.9 397.1c-5.2.2-9.9-1.7-14.8-2.8-29.3-6.7-58.6-13.6-87.9-20.4-23.4-5.4-46.8-10.7-70.2-16.1l-92.1-21.3c-20.6-4.8-41.3-9.5-61.9-14.2-36.1-8.3-72.2-16.6-108.4-25-32.1-7.4-64.1-14.9-96.2-22.4-28.8-6.7-57.7-13.2-86.5-19.8-1.3-.3-2.6-.6-2.8-2.2 2.1-3.6 4.4-7 7.1-10.2 1.5-1.2 3.2-.7 4.8-.3 48.5 11.3 97 22.4 145.5 33.6l159.9 36.9c42.3 9.8 84.6 19.5 126.9 29.3 46.6 10.8 93.2 21.5 139.8 32.3 12.5 2.9 25.1 5.7 37.6 8.8 1.5.4 3.2.3 3.9 2.1-1.4 4-2.8 8-4.7 11.7z"/><path fill="#EC6775" d="M685.8 424.4c-.1-1.6-1.1-2-2.5-2.4-26.1-5.9-52.1-11.9-78.2-18-32.1-7.4-64.2-15-96.2-22.4-23.5-5.5-47.1-10.8-70.6-16.3-31.6-7.3-63.2-14.7-94.8-22-23.5-5.4-47.1-10.8-70.6-16.3-34-7.8-68-15.7-101.9-23.6-23.4-5.4-46.8-10.8-70.3-16.1-13.2-3-26.4-6-39.7-9l7.5-11.7c5 2.6 10.7 3.1 16 4.4 23.7 5.7 47.5 11.1 71.3 16.6 35.5 8.2 71 16.2 106.5 24.4 29.7 6.9 59.4 13.9 89.1 20.8 30.4 7.1 60.9 14.1 91.4 21.1 27.1 6.2 54.1 12.5 81.2 18.7 27.1 6.2 54.1 12.5 81.2 18.7 24.7 5.7 49.3 11.4 74 17.1 4.4 1 8.9 1.5 13 3.5-1.8 4.5-3.9 8.6-6.4 12.5z"/><path fill="#EA4D84" d="M716.3 276.8c-.6 2.6-2.4 1.8-4 1.4-19.1-4.5-38.2-9-57.3-13.4-32.1-7.4-64.2-14.7-96.3-22.1-29.8-6.9-59.6-13.9-89.4-20.8-27-6.3-54.1-12.5-81.2-18.7-27.1-6.2-54.1-12.5-81.2-18.7-28.1-6.5-56.1-13-84.2-19.5-19.6-4.5-39.3-9-58.9-13.5-1.5-.3-3.5-.1-3.9-2.4 3.7-3.9 6.9-8.1 11-11.6 20 5.4 40.2 9.6 60.3 14.3 30.3 7.1 60.5 14.1 90.8 21l117 27c31.7 7.3 63.3 14.6 95 21.9 40.5 9.3 81 18.8 121.6 28.1 19.8 4.6 39.6 8.8 59.2 13.9 1.1 4.2 1.5 8.6 1.5 13.1z"/><path fill="#EB5B7C" d="M713.1 349.5c-.3 4-1.3 7.9-2.4 11.7-1.5 1.3-3.2.8-4.8.5-31-7.2-62.1-14.3-93.1-21.5-43.8-10.1-87.6-20.2-131.5-30.4-35.3-8.2-70.7-16.3-106-24.5l-117-27c-29.4-6.7-58.7-13.7-88.1-20.4-21.2-4.9-42.3-9.7-63.4-14.7-2-.5-4.2-.5-5.5-2.5 2.4-3.8 5.2-7.4 8.2-10.8 1.3-1.1 2.7-.5 4.1-.2 39.3 9.2 78.8 18.2 118.1 27.3 31.7 7.3 63.3 14.6 95 21.9 40.5 9.3 81 18.7 121.6 28.1 38.7 9 77.5 17.9 116.2 26.8 42.3 9.8 84.6 19.5 126.9 29.3 5.8 1.3 11.7 2.6 17.5 4.1 1.4.5 3.1.7 4.2 2.3z"/><path fill="#EE706F" d="M654.5 471c-5.9-2.9-12.4-3.4-18.6-5-16-4-32.2-7.4-48.3-11.2-32.7-7.5-65.4-15-98.2-22.6-33.2-7.7-66.4-15.5-99.6-23.2-30.4-7.1-60.9-14.1-91.4-21.1-27.1-6.2-54.1-12.5-81.2-18.7-27.1-6.2-54.1-12.5-81.2-18.7-28.1-6.5-56.1-13-84.2-19.5-5.2-1.2-10.3-2.2-15.5-3.4-1.3-.3-2.5-.8-3.7 0 1.9-4 3.8-8 6.3-11.7 2-1.4 4.1-.4 6 .1 21.5 5 43.1 9.9 64.6 14.9 43.6 10.1 87.1 20.2 130.7 30.2 35.5 8.2 70.9 16.4 106.4 24.6 40 9.3 80 18.4 120 27.7 34.9 8.1 69.9 16.1 104.8 24.2 28.9 6.7 57.7 13.3 86.6 20.1 1.8.4 4.7 0 4.4 3.4-2.3 3.5-4.8 7-7.9 9.9z"/><path fill="#E9458A" d="M703.2 214.5c-16.3-3.8-32.7-7.6-49-11.4-33.1-7.6-66.2-15.2-99.3-22.9-32.2-7.4-64.4-15-96.6-22.4-26.9-6.2-53.9-12.4-80.8-18.6-28.3-6.5-56.6-13.2-84.9-19.7-26.3-6.1-52.6-12.1-78.9-18.1-1.5-.3-3.5-.2-3.9-2.4 4-4.3 8.7-7.9 13.3-11.6 4.9-.4 9.4 1.6 14.1 2.7 67.5 15.5 135 31 202.5 46.7 53.5 12.4 107.1 24.7 160.7 37.2 30.8 7.1 61.5 14.2 92.3 21.3 1.4.3 2.8.5 4 1.4 2.7 5.6 4.6 11.7 6.5 17.8z"/><path fill="#EA4B86" d="M714.8 263.5c-1.1 1.7-2.5.3-3.5.1-17.9-4.1-35.7-8.2-53.6-12.4-33.7-7.8-67.4-15.6-101.2-23.4-32.2-7.5-64.4-15-96.6-22.4-27.1-6.3-54.1-12.5-81.2-18.7-27.1-6.2-54.1-12.5-81.2-18.7-28.1-6.5-56.1-13-84.2-19.5-12.8-3-25.7-5.9-38.5-8.8-1.5-.4-3.5-.1-4-2.3 3-3.7 6.4-7 9.9-10.3 3.1-.7 5.9.5 8.8 1.2 67.1 15.6 134.2 31 201.3 46.5 57.4 13.3 114.7 26.5 172.1 39.7 48.4 11.2 96.8 22.3 145.1 33.6 1.5.4 3.1.5 4.4 1.5 1.7 4.5 1.4 9.3 2.4 13.9z"/><path fill="#ED6C72" d="M53.2 291c22.3 5.2 44.5 10.4 66.8 15.6 32.2 7.5 64.4 15 96.6 22.4 26.9 6.2 53.9 12.4 80.8 18.6 31.6 7.3 63.2 14.7 94.8 22 26.8 6.2 53.6 12.3 80.4 18.5l102.3 23.7 62.7 14.4c12.1 2.8 24.2 5.6 36.2 8.4 1.8.4 3.4 1.1 5.1 1.7-2.1 3.4-3.6 7.2-6.6 10-1.3.7-2.6.3-3.8 0-31.4-7.3-62.8-14.5-94.2-21.8-39.4-9.1-78.8-18.2-118.1-27.3-32.7-7.5-65.3-15.2-98-22.7-39.4-9.1-78.8-18.2-118.1-27.3-35.3-8.1-70.7-16.3-106-24.5-26.6-6.2-53.2-12.4-79.8-18.5-2.6-.6-5.6-.5-7.2-3.3 2-3.3 3.8-6.8 6.1-9.9z"/><path fill="#EB577F" d="M126.3 188.6c3 3 7.1 3 10.8 3.8 16.2 3.9 32.5 7.5 48.7 11.2 32.7 7.5 65.4 15 98.1 22.6 32.2 7.4 64.4 15 96.6 22.4 28 6.5 56.1 13 84.2 19.5 30.4 7 60.9 14.1 91.3 21.1 27.2 6.3 54.3 12.6 81.5 18.8 25.9 5.9 51.9 11.8 77.8 17.6.4.1.7.3 1.1.5.2 3.4-.4 6.8-1 10.2-.7 3.1-2.9 2.4-4.9 1.9l-31.2-7.2-142.8-33c-38.9-9-77.7-18-116.6-26.9-46.7-10.7-93.4-21.6-140.2-32.4-38.8-8.9-77.5-17.8-116.2-26.8-13.9-3.2-27.9-6.3-41.8-9.8-1.5-.4-4.4.2-3.7-3.1 2.4-3.7 5.1-7.2 8.3-10.4z"/><path fill="#EC607A" d="M703.5 385.4c-11.9-2.8-23.9-5.6-35.8-8.4-30.1-7-60.1-14-90.2-21-23.4-5.4-46.8-10.7-70.2-16.1L405 316.2c-20.5-4.7-41-9.4-61.5-14.2-36.1-8.3-72.2-16.6-108.4-25-32.2-7.4-64.4-15-96.6-22.4-16.9-3.9-33.7-7.8-50.6-11.7-.9-.2-1.8-.2-2.7-.2 2.2-3.6 4.6-7.1 7.4-10.3 1.4-.8 2.8-.4 4.2 0 35.4 8.2 70.9 16.4 106.3 24.6 42.4 9.8 84.8 19.6 127.3 29.3 32.8 7.6 65.6 15.1 98.4 22.8 39.1 9.1 78.2 18.1 117.4 27.1 31.7 7.3 63.3 14.6 95 21.9 19.1 4.4 38.2 8.8 57.4 13.3 3 .7 6.3.6 8.6 3.2-.9 3.7-2.4 7.2-3.7 10.8z"/><path fill="#EB597E" d="M117.8 199c2.5 3.1 6.5 2.7 9.8 3.5 16.2 4 32.5 7.5 48.7 11.3 32.7 7.5 65.5 15 98.2 22.6 29.8 6.9 59.6 13.9 89.4 20.8 30.4 7.1 60.9 14.1 91.4 21.1 27.1 6.2 54.1 12.5 81.2 18.7 27.1 6.2 54.1 12.5 81.2 18.7 24.7 5.7 49.3 11.4 74 17.1 6.7 1.5 13.4 3 20 4.6 1.7.4 2.7 0 3.7-1.2-.4 4.5-1 8.9-2.2 13.2-25.7-6-51.3-12-77-17.9-32.2-7.5-64.4-15-96.6-22.4-27.1-6.3-54.1-12.5-81.2-18.7-24.7-5.7-49.3-11.4-74-17.1-27.1-6.3-54.1-12.5-81.2-18.7-27.1-6.2-54.1-12.5-81.2-18.7-26.9-6.2-53.9-12.4-80.8-18.6-10.6-2.4-21.1-4.9-31.7-7.3 2.4-3.9 5.2-7.6 8.3-11z"/><path fill="#EA4987" d="M712.4 249.6c-4.8.3-9.2-1.6-13.7-2.6-23.7-5.3-47.3-11-70.9-16.5-34-7.9-67.9-15.7-101.9-23.6-23.5-5.4-47.1-10.8-70.6-16.2-31.6-7.3-63.1-14.6-94.7-21.9-27-6.3-54.1-12.5-81.1-18.7-32-7.3-63.9-14.7-95.9-22-1-.2-2-.6-2.9-.9 2.8-3.2 5.6-6.4 8.9-9 7.2 2.6 14.7 3.7 22.1 5.5 13.9 3.4 27.9 6.6 41.8 9.8 31.6 7.3 63.2 14.4 94.7 21.8 10.6 2.5 21.3 4.7 31.9 7.4 11.3 2.8 22.7 5.4 34.1 8.1 9 2.1 18 4.2 27.1 6 11.4 2.3 22.6 5.8 34.1 8.2 12.7 2.6 25.4 5.6 38.1 8.5 32.7 7.5 65.4 15.2 98.1 22.8 11.6 2.7 23.2 5.2 34.7 7.9 10.4 2.5 20.7 5 31.2 7.1 9.3 2 18.5 4.4 27.7 6.5 1.5.3 3.1.3 4.6.4 1.8 3.5 1.7 7.5 2.6 11.4z"/><path fill="#EE766C" d="M628.9 498.6c-.1-1.5-.9-2.1-2.5-2.5-18.1-4.1-36.3-8.2-54.4-12.4-29.8-6.9-59.6-13.9-89.4-20.8-30.4-7.1-60.9-14.1-91.4-21.1-27.1-6.2-54.1-12.5-81.2-18.7-27.1-6.2-54.1-12.5-81.2-18.7-28.1-6.5-56.1-13-84.2-19.5-27.1-6.3-54.1-12.5-81.2-18.7-13.5-3.1-26.9-6.2-40.4-9.3-1.3-.3-2.6-.3-3.9-.4 1.2-3.2 2.3-6.4 4.1-9.3 16.8 3.5 33.4 7.6 50.1 11.4 47.3 10.9 94.6 21.9 141.8 32.8 45.6 10.5 91.3 21.1 136.9 31.6l94.5 21.9c42.2 9.7 84.5 19.5 126.7 29.2 19.6 4.5 39.2 9.1 58.8 13.5 1.8.4 3.9.5 5.2 2.4-2.1 3.4-5.3 6-8.3 8.6z"/><path fill="#E9428E" d="M677.9 159.3c3.2 3.9 4.7 8.7 7.2 12.9-1.2 3.2-3.8 2-5.7 1.5-7.4-1.6-14.7-3.3-22-5-46.6-10.8-93.2-21.5-139.7-32.3-38.9-9-77.7-17.9-116.6-26.9L261 77.1c-4.4-1-8.9-1.9-13.3-3.2-1.6-.5-3.8-.7-3.5-3.3 3.9-3.4 8.2-6.3 12.6-9 13.5 2.7 26.9 6 40.3 9.1 43.1 9.9 86.1 19.8 129.2 29.8 36.6 8.5 73.2 16.9 109.8 25.4 45.5 10.5 90.9 21.1 136.4 31.4 1.9.6 3.6 1.5 5.4 2z"/><path fill="#E9418F" d="M677.9 159.3c-3 .5-5.8-.7-8.6-1.4-36.1-8.3-72.2-16.8-108.3-25.1-24.5-5.7-49.1-11.3-73.6-17-34-7.8-67.9-15.7-101.9-23.6-27-6.2-54.1-12.5-81.1-18.7-14.8-3.4-29.7-6.8-44.5-10.2-1.2-.3-2.7-.2-3.3-1.7 4.6-3.6 9.6-6.7 14.7-9.6.4 2.6 2.8 2 4.3 2.4 10.9 2.7 21.9 5.2 32.8 7.7 13.3 3.1 26.7 6.1 40 9.1 21.4 4.9 42.8 9.6 64.1 14.7 23.7 5.6 47.5 11 71.2 16.5 35 8 69.9 16.4 104.9 24.5 23.5 5.4 47.1 10.6 70.6 16 3.4.8 6.7 2 10.2 2.1 3 4.8 5.7 9.6 8.5 14.3z"/><path fill="#ED6E71" d="M47.3 301c8.9 3.3 18.3 4.6 27.4 6.9 13.8 3.5 27.7 6.4 41.5 9.6 32.7 7.5 65.4 15 98.1 22.6 32.2 7.4 64.4 15 96.6 22.4 27 6.3 54.1 12.5 81.1 18.7 24.7 5.7 49.3 11.4 74 17.1 30.4 7 60.9 14.1 91.3 21.1 27 6.2 54.1 12.5 81.2 18.7 11.3 2.6 22.7 4.8 33.9 8-.9 2.8-2.8 4.9-4.6 7.1-2.9.7-5.7-.4-8.4-1-60.3-14-120.5-27.8-180.8-41.8-62.4-14.5-124.8-28.8-187.3-43.2-53.6-12.3-107.1-24.8-160.6-37.2-28-6.5-56-12.9-83.9-19.4-1.5-.3-3.1-.5-4.2-1.9 1.7-2.4 3.2-5 4.7-7.7z"/><path fill="#ED6E70" d="M42.7 308.9c13.9 3.1 27.7 6.2 41.6 9.4 32.7 7.5 65.5 15 98.2 22.6 29.8 6.9 59.6 13.9 89.5 20.8 27.1 6.3 54.1 12.5 81.2 18.7 27.1 6.2 54.1 12.5 81.2 18.7 28.1 6.5 56.1 13 84.2 19.5 27.1 6.3 54.1 12.5 81.2 18.7l65.7 15c.9.2 1.7.6 2.6.8-1.9 2.6-3.7 5.1-5.6 7.7-.2-2-2-1.9-3.3-2.2-28.7-6.6-57.4-13.1-86.1-19.7-32.1-7.4-64.1-15-96.2-22.4-24.5-5.7-49.1-11.3-73.6-17-34-7.9-67.9-15.7-101.9-23.6-23.5-5.4-47.1-10.8-70.6-16.2-31.6-7.3-63.1-14.7-94.7-22-26.9-6.2-53.9-12.4-80.8-18.6-5.4-1.2-10.8-2.3-16.3-3.5.8-2.2 2.3-4.5 3.7-6.7z"/><path fill="#EA5083" d="M716.9 287.1c.1 1 .1 2 .2 3.1v5.5c-9.4-1.6-18.7-4.1-28-6.2-36.1-8.3-72.3-16.6-108.4-25-29.8-6.9-59.6-13.9-89.5-20.8a30102 30102 0 0 0-91.4-21.1c-27.1-6.2-54.1-12.5-81.2-18.7-28.1-6.5-56.1-13-84.2-19.5-27.1-6.3-54.1-12.5-81.2-18.7-2.3-.5-4.6-.8-6.9-1.1 2-3.2 4.9-5.7 7.4-8.5.1 1.1.8 1.4 1.8 1.6 23.3 5.4 46.5 10.8 69.8 16.2 36.4 8.4 72.8 16.7 109.1 25.1 32.2 7.4 64.4 14.9 96.6 22.4 27.1 6.3 54.1 12.5 81.2 18.7 27.1 6.2 54.1 12.5 81.2 18.7 28.1 6.5 56.1 13 84.2 19.5 13.1 3 26.2 5.9 39.3 8.8z"/><path fill="#E9458C" d="M696.6 196.6c-5.2.2-9.9-1.7-14.8-2.8-29.3-6.7-58.6-13.6-88-20.4-23.5-5.5-47.1-10.8-70.6-16.3l-109.5-25.2c-32.2-7.4-64.4-15-96.6-22.4C290 103.2 263 97 235.9 90.8c-4.3-1-8.6-1.7-12.7-3.4 3.2-3.1 6.6-5.9 10.2-8.4 8.2.9 16 3.3 24 5.1 50.9 11.7 101.8 23.4 152.7 35.2 38.7 9 77.5 17.9 116.2 26.9 42.3 9.8 84.6 19.5 126.9 29.3 12.8 3 25.7 5.5 38.3 9.2 2.1 3.7 3.7 7.8 5.1 11.9z"/><path fill="#E9448C" d="M691.4 184.7c-4.5.7-8.5-1.2-12.7-2.2-30.5-7-60.9-14-91.3-21-32.1-7.4-64.1-14.9-96.2-22.3-23.8-5.5-47.5-11-71.3-16.5-36.4-8.4-72.7-16.7-109.1-25.1-24.7-5.7-49.3-11.4-74-17.1-1.3-.3-2.5-.5-3.5-1.4 3.2-3.2 6.9-5.9 10.8-8.2 1.5 2.8 4.4 2.5 6.8 3.1 19.6 4.6 39.3 9 58.9 13.6L410.9 111c32.2 7.5 64.4 14.9 96.6 22.4 27 6.3 54.1 12.5 81.1 18.7 27 6.2 54.1 12.5 81.1 18.7 3.4.8 6.8 1.7 10.2 2.3 1.7.3 3.6.9 5.1-.7 2.6 3.8 4.7 8 6.4 12.3z"/><path fill="#EE756C" d="M26.6 340.2c4.9 0 9.4 1.8 14 2.8 29.3 6.7 58.6 13.6 88 20.4 23.5 5.5 47.1 10.8 70.6 16.3 31.6 7.3 63.2 14.7 94.8 22 23.4 5.4 46.8 10.7 70.3 16.1l102.3 23.7c23.9 5.5 47.8 11 71.8 16.5 32.9 7.6 65.7 15.1 98.6 22.7 2.3.5 5.3.1 6.8 2.8-1.8 1.7-3.5 3.3-5.3 5-5.4.6-10.4-1.6-15.5-2.8-17.8-4-35.5-7.9-53.2-12.2-42.4-10.3-84.9-19.7-127.4-29.6-41.4-9.7-82.9-19.2-124.4-28.7-46.3-10.7-92.6-21.3-138.8-32-42.6-9.8-85.2-19.7-127.8-29.6-8-1.8-15.9-3.6-23.9-5.6-1.4-.3-3.3-.2-3.3-2.5.3-2 1.3-3.7 2.4-5.3z"/><path fill="#EB5E7C" d="M101.1 220.7l77.4 18c29.8 6.9 59.6 13.9 89.5 20.8a30102 30102 0 0 0 91.4 21.1c27.1 6.2 54.1 12.5 81.2 18.7 24.7 5.7 49.3 11.4 74 17.1 27.1 6.3 54.1 12.5 81.2 18.7 27.1 6.2 54.1 12.5 81.2 18.7 10.1 2.3 20.1 4.6 30.2 6.9 1.1.3 2.3.2 3.5.3-.6 2.3-1.2 4.7-1.8 7-1.8 1.1-3.6.3-5.3-.1-36.2-8.4-72.4-16.7-108.6-25.1-42.3-9.8-84.6-19.5-126.9-29.3-34.8-8-69.6-16.1-104.5-24.1-40.7-9.4-81.3-18.9-121.9-28.2-31.5-7.3-63.1-14.6-94.6-21.9-15.3-3.5-30.7-7-46-10.6-1.6-.4-3.4-.5-4.5-2 1.1-2.1 2.6-4.2 4.5-6z"/><path fill="#EB5E7C" d="M96.5 227c13.9 3.1 27.7 6.3 41.6 9.4 32.7 7.5 65.4 15 98.2 22.6 29.8 6.9 59.6 13.9 89.4 20.8 30.4 7.1 60.9 14.1 91.4 21.1 27.1 6.2 54.1 12.5 81.2 18.7 27.1 6.2 54.1 12.5 81.2 18.7 28.1 6.5 56.1 13 84.2 19.5 15.1 3.5 30.2 6.9 45.3 10.4-.5 2.1-.8 4.3-2 6.3-28-6.5-56.1-13-84.1-19.5-32.2-7.5-64.4-15-96.6-22.4-27-6.3-54.1-12.5-81.1-18.7-28.1-6.5-56.1-13-84.2-19.5-30.4-7-60.9-14.1-91.3-21.1-27-6.2-54.1-12.5-81.1-18.7-28.1-6.5-56.1-13-84.2-19.5l-11.7-2.7c.9-2 2.1-3.9 3.8-5.4z"/><path fill="#EE756C" d="M24.1 345.5c5 3 10.8 3.1 16.3 4.5 13.4 3.4 26.9 6.3 40.4 9.4 33.1 7.6 66.2 15.2 99.3 22.9 32.2 7.4 64.4 15 96.6 22.4 26.9 6.2 53.9 12.4 80.8 18.6 31.6 7.3 63.2 14.7 94.8 22 26.9 6.2 53.9 12.4 80.8 18.6 11 2.5 22 4.5 32.9 7.5 18.6 5.1 37.5 8.8 56.2 13.3 5.4 1.3 10.8 2.5 16.2 3.8-.3.5-.7 1-1 1.5-23.8-5.5-47.6-10.9-71.3-16.4-32.1-7.4-64.1-15-96.2-22.4-24.5-5.7-49.1-11.3-73.6-17-34-7.9-67.9-15.7-101.9-23.6-23.5-5.4-47.1-10.8-70.6-16.2-35-8.1-69.9-16.2-104.9-24.3-23.5-5.4-47.1-10.8-70.6-16.2-7.4-1.7-14.9-3.4-22.3-5-1.1-.2-2-.6-2.5-1.6-.1-.8-.1-1.5.6-1.8z"/><path fill="#F18862" d="M10.2 479.8c-3-6.2-5.2-12.7-6.4-19.5 8.8.9 17.2 3.5 25.7 5.5 32.7 7.5 65.5 15 98.2 22.6 32.2 7.4 64.4 15 96.6 22.4 28.1 6.5 56.1 13 84.2 19.5 30.5 7 60.9 14.1 91.4 21.1 27.1 6.2 54.1 12.5 81.2 18.7 3.8.9 7.6 1.7 11.3 2.6 1.5.3 3 .8 3.8 2.4-10.9 3.8-22.1 6.6-33.5 8.6-1.7.8-3.3.2-5-.1-66.3-15.6-132.7-30.7-199-46-50.1-11.6-100.3-23.2-150.4-34.8-30.5-7.1-61-14-91.5-21.2-2.1-.7-4.6-.2-6.6-1.8z"/><path fill="#F18A61" d="M10.2 479.8c5.6-.6 10.7 1.5 16 2.7 29.5 6.7 58.9 13.7 88.3 20.5 23.5 5.5 47.1 10.8 70.6 16.2 31.6 7.3 63.1 14.6 94.7 22 27 6.3 54.1 12.5 81.2 18.7 26.9 6.2 53.9 12.4 80.8 18.6 7 1.6 14 3.4 21 5-11.1 3.1-22.5 4.5-33.9 6.2-6.4.9-12.8 1.5-19.3 2.3.7-2.5-1.4-2-2.6-2.2-17-4-34-7.8-51-11.8-32.1-7.5-64.1-15-96.2-22.4-23.5-5.5-47.1-10.8-70.6-16.3L79.7 514.1l-52.8-12.3c-1.3-.3-2.6-.7-3.6.6-5.6-6.7-10.1-14.2-13.1-22.6z"/></svg>